<svg width="149" height="154" viewBox="0 0 149 154" fill="none" xmlns="http://www.w3.org/2000/svg">
<path d="M140.6 146.092L128.144 139.578C131.456 133.386 132.07 127.332 129.984 121.416C127.851 115.544 124.249 109.897 119.177 104.475L105.551 89.9069C101.142 85.1921 98.1423 79.9536 96.5536 74.1913C94.9178 68.4731 95.2103 62.454 97.4312 56.134C99.6521 49.8139 104.275 43.3686 111.3 36.7981L120.428 46.5576C115.572 51.0996 113.406 55.7773 113.93 60.5905C114.454 65.4038 116.966 70.2149 121.464 75.0239L135.09 89.5925C139.72 94.543 143.287 99.869 145.791 105.571C148.292 111.363 149.226 117.606 148.591 124.299C148 131.039 145.337 138.303 140.6 146.092ZM16.6208 20.3425L10.8872 7.40793C19.019 3.2494 26.4671 1.10048 33.2315 0.961186C39.9517 0.774754 46.1183 2.12271 51.7311 5.00504C57.2527 7.88433 62.3286 11.7992 66.9589 16.7497L80.4527 31.1768C83.4955 34.43 86.5687 36.7707 89.6724 38.199C92.8203 39.6744 96.0032 40.1005 99.2212 39.4773C102.436 38.9453 105.647 37.18 108.853 34.1814L118.047 44.0116C111.022 50.5822 104.26 54.7408 97.762 56.4876C91.3077 58.2815 85.2825 58.1714 79.6863 56.1574C74.087 54.2347 69.0384 50.8688 64.5405 46.0598L51.0466 31.6326C47.6511 28.0023 44.143 25.0076 40.5223 22.6486C36.8103 20.2865 32.9766 18.8338 29.0212 18.2906C25.0186 17.7914 20.8851 18.4754 16.6208 20.3425Z" fill="#404F53"/>
<path d="M140.6 146.092L128.144 139.578C131.456 133.386 132.07 127.332 129.984 121.416C127.851 115.544 124.249 109.897 119.177 104.475L105.551 89.9069C101.142 85.1921 98.1423 79.9536 96.5536 74.1913C94.9178 68.4731 95.2103 62.454 97.4312 56.134C99.6521 49.8139 104.275 43.3686 111.3 36.7981L120.428 46.5576C115.572 51.0996 113.406 55.7773 113.93 60.5905C114.454 65.4038 116.966 70.2149 121.464 75.0239L135.09 89.5925C139.72 94.543 143.287 99.869 145.791 105.571C148.292 111.363 149.226 117.606 148.591 124.299C148 131.039 145.337 138.303 140.6 146.092ZM16.6208 20.3425L10.8872 7.40793C19.019 3.2494 26.4671 1.10048 33.2315 0.961186C39.9517 0.774754 46.1183 2.12271 51.7311 5.00504C57.2527 7.88433 62.3286 11.7992 66.9589 16.7497L80.4527 31.1768C83.4955 34.43 86.5687 36.7707 89.6724 38.199C92.8203 39.6744 96.0032 40.1005 99.2212 39.4773C102.436 38.9453 105.647 37.18 108.853 34.1814L118.047 44.0116C111.022 50.5822 104.26 54.7408 97.762 56.4876C91.3077 58.2815 85.2825 58.1714 79.6863 56.1574C74.087 54.2347 69.0384 50.8688 64.5405 46.0598L51.0466 31.6326C47.6511 28.0023 44.143 25.0076 40.5223 22.6486C36.8103 20.2865 32.9766 18.8338 29.0212 18.2906C25.0186 17.7914 20.8851 18.4754 16.6208 20.3425Z" fill="url(#paint0_linear_37_186)" fill-opacity="0.2"/>
<path d="M6.50765 27.1447C48.9952 19.2766 44.6678 57.4473 76.14 59.4038" stroke="black" stroke-width="0.786807" stroke-linecap="round"/>
<path d="M76.1401 59.4038C76.1401 59.4038 84.0082 59.4038 87.1555 65.3049C90.2145 71.0405 81.3808 80.4924 97.4987 98.3565C98.4506 99.4116 99.5345 100.344 100.634 101.244C115.924 113.754 127.255 136.095 126.496 146.346M136.331 152.641L140.265 145.953" stroke="black" stroke-width="0.786807" stroke-linecap="round"/>
<path d="M10.8351 7.86792L1.36725 19.608C1.14925 19.8784 1.13425 20.2596 1.33035 20.5463L5.66406 26.8801C5.91173 27.2421 6.40754 27.3317 6.76622 27.0793L16.7361 20.0634" stroke="black" stroke-width="0.786807" stroke-linecap="round"/>
<path d="M97.384 56.6499L87.1555 65.3048" stroke="black" stroke-width="0.786807" stroke-linecap="round"/>
<path d="M128.463 139.658C128.346 139.521 128.734 138.47 126.496 146.346C126.469 146.439 125.709 145.953 136.331 152.64" stroke="black" stroke-width="0.786807" stroke-linecap="round"/>
<defs>
<linearGradient id="paint0_linear_37_186" x1="123.894" y1="126.299" x2="54.2726" y2="11.1694" gradientUnits="userSpaceOnUse">
<stop offset="0.392165" stop-color="#00D1FF"/>
<stop offset="0.777398" stop-color="#F600C0"/>
</linearGradient>
</defs>
</svg>
