<svg width="156" height="151" viewBox="0 0 156 151" fill="none" xmlns="http://www.w3.org/2000/svg">
<path d="M26.9874 0L39.3894 6.61716C36.0253 12.7816 35.3615 18.8304 37.3982 24.7634C39.4823 30.6528 43.0374 36.3295 48.0633 41.7934L61.5678 56.4748C65.9382 61.2261 68.8938 66.4894 70.4344 72.2647C72.0226 77.9963 71.68 84.0127 69.4067 90.3141C67.1333 96.6155 62.4569 103.022 55.3775 109.534L46.3308 99.6989C51.2246 95.1974 53.4294 90.5379 52.9453 85.7205C52.4611 80.903 49.9901 76.0712 45.5323 71.2249L32.0278 56.5435C27.4389 51.5547 23.9161 46.1992 21.4595 40.477C19.0066 34.6636 18.1254 28.4133 18.8159 21.726C19.4626 14.9912 22.1864 7.74921 26.9874 0ZM149.917 126.777L155.542 139.758C147.376 143.849 139.91 145.936 133.145 146.019C126.424 146.15 120.269 144.75 114.68 141.821C109.182 138.896 104.139 134.939 99.5503 129.95L86.177 115.412C83.1614 112.133 80.1077 109.767 77.016 108.313C73.8805 106.811 70.7013 106.359 67.4782 106.955C64.259 107.461 61.034 109.199 57.8031 112.171L48.6908 102.265C55.7702 95.7527 62.5662 91.6504 69.0789 89.9578C75.5478 88.2176 81.5719 88.3778 87.1512 90.4382C92.7342 92.4075 97.7547 95.8153 102.212 100.662L115.586 115.2C118.951 118.859 122.434 121.883 126.035 124.272C129.727 126.665 133.549 128.149 137.5 128.725C141.498 129.258 145.637 128.608 149.917 126.777Z" fill="#404F53"/>
<path d="M26.9874 0L39.3894 6.61716C36.0253 12.7816 35.3615 18.8304 37.3982 24.7634C39.4823 30.6528 43.0374 36.3295 48.0633 41.7934L61.5678 56.4748C65.9382 61.2261 68.8938 66.4894 70.4344 72.2647C72.0226 77.9963 71.68 84.0127 69.4067 90.3141C67.1333 96.6155 62.4569 103.022 55.3775 109.534L46.3308 99.6989C51.2246 95.1974 53.4294 90.5379 52.9453 85.7205C52.4611 80.903 49.9901 76.0712 45.5323 71.2249L32.0278 56.5435C27.4389 51.5547 23.9161 46.1992 21.4595 40.477C19.0066 34.6636 18.1254 28.4133 18.8159 21.726C19.4626 14.9912 22.1864 7.74921 26.9874 0ZM149.917 126.777L155.542 139.758C147.376 143.849 139.91 145.936 133.145 146.019C126.424 146.15 120.269 144.75 114.68 141.821C109.182 138.896 104.139 134.939 99.5503 129.95L86.177 115.412C83.1614 112.133 80.1077 109.767 77.016 108.313C73.8805 106.811 70.7013 106.359 67.4782 106.955C64.259 107.461 61.034 109.199 57.8031 112.171L48.6908 102.265C55.7702 95.7527 62.5662 91.6504 69.0789 89.9578C75.5478 88.2176 81.5719 88.3778 87.1512 90.4382C92.7342 92.4075 97.7547 95.8153 102.212 100.662L115.586 115.2C118.951 118.859 122.434 121.883 126.035 124.272C129.727 126.665 133.549 128.149 137.5 128.725C141.498 129.258 145.637 128.608 149.917 126.777Z" fill="url(#paint0_linear_37_177)" fill-opacity="0.2"/>
<path d="M33.6563 101.689C44.3569 99.3851 47.032 99.1931 47.032 99.3851" stroke="black" stroke-width="0.786807" stroke-linecap="square"/>
<path d="M26.9683 0.584564C-14.8318 48.8187 28.4573 70.3206 41.5243 89.8872" stroke="black" stroke-width="0.786807" stroke-linecap="round"/>
<path d="M41.5244 89.887C36.6185 96.8586 34.3782 100.07 33.5869 101.216C33.3922 101.498 33.3964 101.856 33.6124 102.122C36.2751 105.401 53.3142 126.103 55.6869 121.753C58.2619 117.032 65.4814 112.971 72.9967 117.819C80.5119 122.666 112.73 170.535 154.825 139.456" stroke="black" stroke-width="0.786807" stroke-linecap="round"/>
<path d="M57.8595 111.141C55.9366 120.076 55.4405 122.028 55.4328 121.887" stroke="black" stroke-width="0.786807" stroke-linecap="round"/>
<defs>
<linearGradient id="paint0_linear_37_177" x1="43.5284" y1="19.9315" x2="112.19" y2="135.636" gradientUnits="userSpaceOnUse">
<stop offset="0.392165" stop-color="#00D1FF"/>
<stop offset="0.777398" stop-color="#F600C0"/>
</linearGradient>
</defs>
</svg>
