<svg width="149" height="154" viewBox="0 0 149 154" fill="none" xmlns="http://www.w3.org/2000/svg">
<path d="M140.057 146.092L127.601 139.578C130.914 133.386 131.527 127.332 129.441 121.416C127.308 115.544 123.706 109.898 118.635 104.476L105.008 89.9071C100.599 85.1923 97.5994 79.9538 96.0108 74.1915C94.3749 68.4733 94.6675 62.4542 96.8884 56.1341C99.1092 49.8141 103.732 43.3688 110.757 36.7982L119.885 46.5578C115.029 51.0998 112.863 55.7775 113.387 60.5907C113.912 65.4039 116.423 70.2151 120.921 75.0241L134.547 89.5927C139.177 94.5432 142.744 99.8692 145.248 105.571C147.75 111.363 148.683 117.606 148.048 124.299C147.457 131.039 144.794 138.303 140.057 146.092ZM16.0779 20.3426L10.3443 7.40811C18.4762 3.24958 25.9243 1.10067 32.6886 0.961369C39.4088 0.774937 45.5754 2.12289 51.1882 5.00522C56.7098 7.88452 61.7858 11.7994 66.416 16.7499L79.9099 31.177C82.9526 34.4302 86.0259 36.7709 89.1296 38.1992C92.2774 39.6746 95.4603 40.1007 98.6783 39.4775C101.893 38.9455 105.104 37.1802 108.31 34.1816L117.504 44.0118C110.479 50.5823 103.717 54.741 97.2191 56.4877C90.7648 58.2816 84.7396 58.1716 79.1434 56.1576C73.5442 54.2349 68.4956 50.869 63.9976 46.0599L50.5037 31.6328C47.1082 28.0025 43.6001 25.0078 39.9794 22.6488C36.2675 20.2867 32.4338 18.834 28.4783 18.2908C24.4758 17.7916 20.3423 18.4756 16.0779 20.3426Z" fill="#404F53"/>
<path d="M140.057 146.092L127.601 139.578C130.914 133.386 131.527 127.332 129.441 121.416C127.308 115.544 123.706 109.898 118.635 104.476L105.008 89.9071C100.599 85.1923 97.5994 79.9538 96.0108 74.1915C94.3749 68.4733 94.6675 62.4542 96.8884 56.1341C99.1092 49.8141 103.732 43.3688 110.757 36.7982L119.885 46.5578C115.029 51.0998 112.863 55.7775 113.387 60.5907C113.912 65.4039 116.423 70.2151 120.921 75.0241L134.547 89.5927C139.177 94.5432 142.744 99.8692 145.248 105.571C147.75 111.363 148.683 117.606 148.048 124.299C147.457 131.039 144.794 138.303 140.057 146.092ZM16.0779 20.3426L10.3443 7.40811C18.4762 3.24958 25.9243 1.10067 32.6886 0.961369C39.4088 0.774937 45.5754 2.12289 51.1882 5.00522C56.7098 7.88452 61.7858 11.7994 66.416 16.7499L79.9099 31.177C82.9526 34.4302 86.0259 36.7709 89.1296 38.1992C92.2774 39.6746 95.4603 40.1007 98.6783 39.4775C101.893 38.9455 105.104 37.1802 108.31 34.1816L117.504 44.0118C110.479 50.5823 103.717 54.741 97.2191 56.4877C90.7648 58.2816 84.7396 58.1716 79.1434 56.1576C73.5442 54.2349 68.4956 50.869 63.9976 46.0599L50.5037 31.6328C47.1082 28.0025 43.6001 25.0078 39.9794 22.6488C36.2675 20.2867 32.4338 18.834 28.4783 18.2908C24.4758 17.7916 20.3423 18.4756 16.0779 20.3426Z" fill="#00D1FF" fill-opacity="0.2"/>
<path d="M5.96478 27.1448C48.4523 19.2767 44.1249 57.4475 75.5972 59.4039" stroke="black" stroke-width="0.786807" stroke-linecap="round"/>
<path d="M75.5972 59.4039C75.5972 59.4039 83.4653 59.4039 86.6126 65.305C89.6715 71.0406 80.8379 80.4924 96.9558 98.3566C97.9077 99.4117 98.9916 100.344 100.091 101.244C115.381 113.755 126.712 136.096 125.953 146.346M135.788 152.641L139.722 145.953" stroke="black" stroke-width="0.786807" stroke-linecap="round"/>
<path d="M10.2922 7.86804L0.824321 19.6082C0.606316 19.8785 0.591322 20.2598 0.787424 20.5464L5.12113 26.8803C5.3688 27.2422 5.86461 27.3318 6.22329 27.0794L16.1932 20.0636" stroke="black" stroke-width="0.786807" stroke-linecap="round"/>
<path d="M96.841 56.6502L86.6125 65.3051" stroke="black" stroke-width="0.786807" stroke-linecap="round"/>
<path d="M127.92 139.658C127.803 139.521 128.191 138.471 125.953 146.346C125.926 146.439 125.166 145.953 135.788 152.641" stroke="black" stroke-width="0.786807" stroke-linecap="round"/>
</svg>
