<svg width="157" height="151" viewBox="0 0 157 151" fill="none" xmlns="http://www.w3.org/2000/svg">
<path d="M27.4836 0.488647L39.8856 7.10581C36.5215 13.2703 35.8577 19.319 37.8944 25.2521C39.9785 31.1415 43.5336 36.8181 48.5595 42.2821L62.064 56.9635C66.4344 61.7147 69.39 66.978 70.9306 72.7533C72.5188 78.4849 72.1762 84.5014 69.9029 90.8028C67.6295 97.1041 62.9531 103.511 55.8737 110.023L46.827 100.188C51.7208 95.686 53.9256 91.0265 53.4415 86.2091C52.9573 81.3917 50.4863 76.5598 46.0285 71.7135L32.524 57.0321C27.9351 52.0433 24.4123 46.6878 21.9557 40.9656C19.5028 35.1522 18.6216 28.9019 19.312 22.2146C19.9588 15.4799 22.6826 8.23786 27.4836 0.488647ZM150.413 127.265L156.039 140.247C147.872 144.338 140.407 146.425 133.641 146.508C126.92 146.638 120.765 145.239 115.176 142.31C109.679 139.385 104.635 135.428 100.047 130.439L86.6731 115.9C83.6576 112.622 80.6039 110.256 77.5122 108.802C74.3767 107.3 71.1975 106.848 67.9744 107.444C64.7552 107.949 61.5301 109.688 58.2993 112.66L49.187 102.753C56.2664 96.2413 63.0624 92.1391 69.5751 90.4464C76.044 88.7063 82.0681 88.8664 87.6474 90.9269C93.2304 92.8961 98.2509 96.3039 102.709 101.15L116.082 115.689C119.447 119.348 122.93 122.371 126.531 124.76C130.223 127.153 134.045 128.638 137.996 129.214C141.994 129.746 146.133 129.097 150.413 127.265Z" fill="#404F53"/>
<path d="M27.4836 0.488647L39.8856 7.10581C36.5215 13.2703 35.8577 19.319 37.8944 25.2521C39.9785 31.1415 43.5336 36.8181 48.5595 42.2821L62.064 56.9635C66.4344 61.7147 69.39 66.978 70.9306 72.7533C72.5188 78.4849 72.1762 84.5014 69.9029 90.8028C67.6295 97.1041 62.9531 103.511 55.8737 110.023L46.827 100.188C51.7208 95.686 53.9256 91.0265 53.4415 86.2091C52.9573 81.3917 50.4863 76.5598 46.0285 71.7135L32.524 57.0321C27.9351 52.0433 24.4123 46.6878 21.9557 40.9656C19.5028 35.1522 18.6216 28.9019 19.312 22.2146C19.9588 15.4799 22.6826 8.23786 27.4836 0.488647ZM150.413 127.265L156.039 140.247C147.872 144.338 140.407 146.425 133.641 146.508C126.92 146.638 120.765 145.239 115.176 142.31C109.679 139.385 104.635 135.428 100.047 130.439L86.6731 115.9C83.6576 112.622 80.6039 110.256 77.5122 108.802C74.3767 107.3 71.1975 106.848 67.9744 107.444C64.7552 107.949 61.5301 109.688 58.2993 112.66L49.187 102.753C56.2664 96.2413 63.0624 92.1391 69.5751 90.4464C76.044 88.7063 82.0681 88.8664 87.6474 90.9269C93.2304 92.8961 98.2509 96.3039 102.709 101.15L116.082 115.689C119.447 119.348 122.93 122.371 126.531 124.76C130.223 127.153 134.045 128.638 137.996 129.214C141.994 129.746 146.133 129.097 150.413 127.265Z" fill="#00D1FF" fill-opacity="0.2"/>
<path d="M34.1525 102.178C44.8531 99.8737 47.5282 99.6817 47.5282 99.8737" stroke="black" stroke-width="0.786807" stroke-linecap="square"/>
<path d="M27.4645 1.07309C-14.3356 49.3072 28.9535 70.8091 42.0205 90.3757" stroke="black" stroke-width="0.786807" stroke-linecap="round"/>
<path d="M42.0206 90.3756C37.1147 97.3472 34.8744 100.559 34.0831 101.704C33.8884 101.987 33.8926 102.344 34.1086 102.61C36.7713 105.89 53.8104 126.591 56.1831 122.241C58.7581 117.52 65.9776 113.459 73.4929 118.307C81.0081 123.155 113.227 171.023 155.321 139.944" stroke="black" stroke-width="0.786807" stroke-linecap="round"/>
<path d="M58.3557 111.63C56.4328 120.565 55.9367 122.517 55.929 122.376" stroke="black" stroke-width="0.786807" stroke-linecap="round"/>
</svg>
