<svg width="61" height="60" viewBox="0 0 61 60" fill="none" xmlns="http://www.w3.org/2000/svg">
<path d="M37.6304 1.52588e-05H9.69442C4.85926 1.52588e-05 0.93959 3.91968 0.93959 8.75484V36.6908C0.93959 41.5259 4.85926 45.4456 9.69442 45.4456H37.6304C42.4655 45.4456 46.3852 41.5259 46.3852 36.6908V8.75484C46.3852 3.91968 42.4655 1.52588e-05 37.6304 1.52588e-05Z" fill="url(#paint0_linear_2_19)"/>
<g filter="url(#filter0_b_2_19)">
<path d="M51.8023 13.3693H23.8664C19.0312 13.3693 15.1116 17.289 15.1116 22.1241V50.0601C15.1116 54.8952 19.0312 58.8149 23.8664 58.8149H51.8023C56.6375 58.8149 60.5572 54.8952 60.5572 50.0601V22.1241C60.5572 17.289 56.6375 13.3693 51.8023 13.3693Z" fill="url(#paint1_linear_2_19)"/>
<path d="M51.8023 13.2232H23.8664C18.9505 13.2232 14.9655 17.2083 14.9655 22.1241V50.0601C14.9655 54.9759 18.9505 58.961 23.8664 58.961H51.8023C56.7182 58.961 60.7033 54.9759 60.7033 50.0601V22.1241C60.7033 17.2083 56.7182 13.2232 51.8023 13.2232Z" stroke="url(#paint2_linear_2_19)" stroke-width="0.292217"/>
</g>
<defs>
<filter id="filter0_b_2_19" x="4.29955" y="2.55729" width="67.0696" height="67.0696" filterUnits="userSpaceOnUse" color-interpolation-filters="sRGB">
<feFlood flood-opacity="0" result="BackgroundImageFix"/>
<feGaussianBlur in="BackgroundImageFix" stdDeviation="5.25991"/>
<feComposite in2="SourceAlpha" operator="in" result="effect1_backgroundBlur_2_19"/>
<feBlend mode="normal" in="SourceGraphic" in2="effect1_backgroundBlur_2_19" result="shape"/>
</filter>
<linearGradient id="paint0_linear_2_19" x1="43.1357" y1="47.2515" x2="4.67997" y2="-1.18639" gradientUnits="userSpaceOnUse">
<stop stop-color="#D96DC1"/>
<stop offset="0.484375" stop-color="#57DF9E"/>
<stop offset="1" stop-color="#713FFF"/>
</linearGradient>
<linearGradient id="paint1_linear_2_19" x1="17.6772" y1="56.2492" x2="57.9915" y2="15.935" gradientUnits="userSpaceOnUse">
<stop stop-color="#0E0D0D" stop-opacity="0.2"/>
<stop offset="1" stop-color="white" stop-opacity="0.49"/>
</linearGradient>
<linearGradient id="paint2_linear_2_19" x1="18.3195" y1="16.9435" x2="56.3077" y2="57.5617" gradientUnits="userSpaceOnUse">
<stop stop-color="white"/>
<stop offset="1" stop-color="white" stop-opacity="0"/>
</linearGradient>
</defs>
</svg>
